<?xml version="1.0" encoding="UTF-8" standalone="no"?>
<!-- Created with Inkscape (http://www.inkscape.org/) -->

<svg
   width="0.5in"
   height="0.5in"
   viewBox="0 0 12.7 12.7"
   version="1.1"
   id="svg1"
   xmlns:inkscape="http://www.inkscape.org/namespaces/inkscape"
   xmlns:sodipodi="http://sodipodi.sourceforge.net/DTD/sodipodi-0.dtd"
   xmlns="http://www.w3.org/2000/svg"
   xmlns:svg="http://www.w3.org/2000/svg">
  <sodipodi:namedview
     id="namedview1"
     pagecolor="#ffffff"
     bordercolor="#000000"
     borderopacity="0.25"
     inkscape:showpageshadow="2"
     inkscape:pageopacity="0.0"
     inkscape:pagecheckerboard="0"
     inkscape:deskcolor="#d1d1d1"
     inkscape:document-units="mm" />
  <defs
     id="defs1" />
  <g
     inkscape:label="Layer 1"
     inkscape:groupmode="layer"
     id="layer1">
    <g
       id="g2"
       transform="matrix(0.26458333,0,0,0.26458333,0.14888898,2.6375773)">
      <g
         id="g1"
         transform="translate(6.0975517,-10.581334)">
        <g
           id="SvgjsG1005"
           transform="matrix(0.69710032,0,0,0.69710032,5.9317102,-13.226774)" />
        <g
           id="SvgjsG1006"
           transform="matrix(0.69710032,0,0,0.69710032,5.9317102,-13.226774)" />
        <g
           id="SvgjsG1009"
           transform="matrix(0.69710032,0,0,0.69710032,10.114312,-211.20326)" />
        <g
           id="SvgjsG1205"
           transform="matrix(0.69710032,0,0,0.69710032,10.114312,-211.21415)" />
        <g
           id="SvgjsG1247"
           transform="matrix(0.69710032,0,0,0.69710032,79.824344,-128.43785)" />
        <g
           id="SvgjsG1260"
           transform="matrix(0.69710032,0,0,0.69710032,79.824344,-135.68769)" />
        <g
           id="SvgjsG1274"
           transform="matrix(0.69710032,0,0,0.69710032,79.824344,-135.68769)" />
        <g
           id="SvgjsG1288"
           transform="matrix(0.69710032,0,0,0.69710032,79.824344,-135.68769)" />
        <g
           id="SvgjsG1302"
           transform="matrix(0.69710032,0,0,0.69710032,79.824344,-135.68769)" />
        <g
           id="SvgjsG1316"
           transform="matrix(0.69710032,0,0,0.69710032,79.824344,-135.68769)" />
        <g
           id="SvgjsG1330"
           transform="matrix(0.69710032,0,0,0.69710032,79.824344,-135.68769)" />
        <g
           id="SvgjsG1344"
           transform="matrix(0.69710032,0,0,0.69710032,79.824344,-135.68769)" />
        <g
           id="SvgjsG1358"
           transform="matrix(0.69710032,0,0,0.69710032,79.824344,-135.68769)" />
        <g
           id="SvgjsG1372"
           transform="matrix(0.69710032,0,0,0.69710032,79.824344,-135.68769)" />
        <g
           id="SvgjsG1386"
           transform="matrix(0.69710032,0,0,0.69710032,79.824344,-135.68769)" />
        <g
           id="SvgjsG1400"
           transform="matrix(0.69710032,0,0,0.69710032,79.824344,-135.68769)" />
        <g
           id="SvgjsG1414"
           transform="matrix(0.69710032,0,0,0.69710032,79.824344,-135.68769)" />
        <g
           id="SvgjsG1429"
           transform="matrix(0.69710032,0,0,0.69710032,79.824344,-135.68769)" />
        <g
           id="SvgjsG1444"
           transform="matrix(0.69710032,0,0,0.69710032,79.824344,-135.68769)" />
        <g
           id="SvgjsG1459"
           transform="matrix(0.69710032,0,0,0.69710032,43.575127,-194.47285)" />
        <g
           id="SvgjsG1474"
           transform="matrix(0.69710032,0,0,0.69710032,43.575127,-194.47285)" />
        <g
           id="SvgjsG1489"
           transform="matrix(0.69710032,0,0,0.69710032,43.575127,-194.47285)" />
        <g
           id="SvgjsG1504"
           transform="matrix(0.69710032,0,0,0.69710032,43.575127,-194.47285)" />
        <g
           id="SvgjsG1519"
           transform="matrix(0.69710032,0,0,0.69710032,43.575127,-194.47285)" />
        <g
           id="SvgjsG1534"
           transform="matrix(0.69710032,0,0,0.69710032,43.575127,-194.47285)" />
        <g
           id="SvgjsG1549"
           transform="matrix(0.69710032,0,0,0.69710032,43.575127,-194.47285)" />
        <g
           id="SvgjsG1591"
           transform="matrix(0.69710032,0,0,0.69710032,79.824344,-128.43785)" />
        <g
           id="SvgjsG1606"
           transform="matrix(0.69710032,0,0,0.69710032,43.575127,-194.47285)" />
        <g
           id="SvgjsG1621"
           transform="matrix(0.69710032,0,0,0.69710032,43.575127,-194.47285)" />
        <g
           id="SvgjsG1636"
           transform="matrix(0.69710032,0,0,0.69710032,43.575127,-194.47285)" />
        <g
           id="SvgjsG1651"
           transform="matrix(0.69710032,0,0,0.69710032,43.575127,-194.47285)" />
        <g
           id="SvgjsG1666"
           transform="matrix(0.69710032,0,0,0.69710032,43.575127,-194.47285)" />
        <g
           id="SvgjsG1681"
           transform="matrix(0.69710032,0,0,0.69710032,43.575127,-194.47285)" />
        <g
           id="SvgjsG1696"
           transform="matrix(0.69710032,0,0,0.69710032,43.575127,-194.47285)" />
        <g
           id="SvgjsG1710"
           transform="matrix(0.69710032,0,0,0.69710032,43.575127,-202.83806)" />
        <g
           id="SvgjsG1724"
           transform="matrix(0.69710032,0,0,0.69710032,43.575127,-202.83806)" />
        <g
           id="SvgjsG1738"
           transform="matrix(0.69710032,0,0,0.69710032,43.575127,-202.83806)" />
        <g
           id="SvgjsG1752"
           transform="matrix(0.69710032,0,0,0.69710032,43.575127,-202.83806)" />
        <g
           id="SvgjsG1766"
           transform="matrix(0.69710032,0,0,0.69710032,43.575127,-202.83806)" />
        <g
           id="SvgjsG1780"
           transform="matrix(0.69710032,0,0,0.69710032,43.575127,-202.83806)" />
        <g
           id="SvgjsG1795"
           transform="matrix(0.69710032,0,0,0.69710032,43.575127,-194.47285)" />
        <g
           id="SvgjsG1837"
           transform="matrix(0.69710032,0,0,0.69710032,79.824344,-128.43785)" />
        <g
           id="SvgjsG1851"
           transform="matrix(0.69710032,0,0,0.69710032,43.575127,-202.83806)" />
        <g
           id="SvgjsG1865"
           transform="matrix(0.69710032,0,0,0.69710032,43.575127,-202.83806)" />
        <g
           id="SvgjsG1879"
           transform="matrix(0.69710032,0,0,0.69710032,43.575127,-202.83806)" />
        <g
           id="SvgjsG1893"
           transform="matrix(0.69710032,0,0,0.69710032,43.575127,-202.83806)" />
        <g
           id="SvgjsG1907"
           transform="matrix(0.69710032,0,0,0.69710032,43.575127,-202.83806)" />
        <g
           id="SvgjsG1921"
           transform="matrix(0.69710032,0,0,0.69710032,43.575127,-202.83806)" />
        <g
           id="SvgjsG1935"
           transform="matrix(0.69710032,0,0,0.69710032,43.575127,-202.83806)" />
        <g
           id="SvgjsG1949"
           transform="matrix(0.69710032,0,0,0.69710032,43.575127,-202.83806)" />
        <g
           id="SvgjsG1963"
           transform="matrix(0.69710032,0,0,0.69710032,43.575127,-202.83806)" />
        <g
           id="SvgjsG1977"
           transform="matrix(0.69710032,0,0,0.69710032,43.575127,-202.83806)" />
        <g
           id="SvgjsG1992"
           transform="matrix(0.69710032,0,0,0.69710032,43.575127,-194.47285)" />
        <g
           id="SvgjsG2006"
           transform="matrix(0.69710032,0,0,0.69710032,43.575127,-202.83806)" />
        <g
           id="SvgjsG2019"
           transform="matrix(0.69710032,0,0,0.69710032,43.575127,-196.14589)" />
        <g
           id="SvgjsG2033"
           transform="matrix(0.69710032,0,0,0.69710032,43.575127,-202.83806)" />
        <g
           id="SvgjsG2047"
           transform="matrix(0.69710032,0,0,0.69710032,43.575127,-202.83806)" />
        <g
           id="SvgjsG2061"
           transform="matrix(0.69710032,0,0,0.69710032,43.575127,-202.83806)" />
        <g
           id="SvgjsG2075"
           transform="matrix(0.69710032,0,0,0.69710032,43.575127,-202.83806)" />
        <g
           id="SvgjsG2089"
           transform="matrix(0.69710032,0,0,0.69710032,43.575127,-202.83806)" />
        <g
           id="SvgjsG2103"
           transform="matrix(0.69710032,0,0,0.69710032,43.575127,-202.83806)" />
        <g
           id="SvgjsG2117"
           transform="matrix(0.69710032,0,0,0.69710032,43.575127,-202.83806)" />
        <g
           id="SvgjsG2131"
           transform="matrix(0.69710032,0,0,0.69710032,43.575127,-202.83806)" />
        <g
           id="SvgjsG2145"
           transform="matrix(0.69710032,0,0,0.69710032,43.575127,-202.83806)" />
        <g
           id="SvgjsG2158"
           transform="matrix(0.69710032,0,0,0.69710032,43.575127,-194.47285)" />
        <g
           id="SvgjsG2172"
           transform="matrix(0.69710032,0,0,0.69710032,43.575127,-202.83806)" />
        <g
           id="SvgjsG2186"
           transform="matrix(0.69710032,0,0,0.69710032,43.575127,-202.83806)" />
        <g
           id="SvgjsG2200"
           transform="matrix(0.69710032,0,0,0.69710032,43.575127,-202.83806)" />
        <g
           id="SvgjsG2213"
           transform="matrix(0.69710032,0,0,0.69710032,43.575127,-194.47285)" />
        <g
           id="SvgjsG2227"
           transform="matrix(0.69710032,0,0,0.69710032,43.575127,-202.83806)" />
        <g
           id="SvgjsG2241"
           transform="matrix(0.69710032,0,0,0.69710032,43.575127,-202.83806)" />
        <g
           id="SvgjsG2255"
           transform="matrix(0.69710032,0,0,0.69710032,43.575127,-202.83806)" />
        <g
           id="SvgjsG2269"
           transform="matrix(0.69710032,0,0,0.69710032,43.575127,-202.83806)" />
        <g
           id="SvgjsG2283"
           transform="matrix(0.69710032,0,0,0.69710032,43.575127,-202.83806)" />
        <g
           id="SvgjsG2297"
           transform="matrix(0.69710032,0,0,0.69710032,43.575127,-202.83806)" />
        <g
           id="SvgjsG2311"
           transform="matrix(0.69710032,0,0,0.69710032,43.575127,-202.83806)" />
        <g
           id="SvgjsG2325"
           transform="matrix(0.69710032,0,0,0.69710032,43.575127,-202.83806)" />
        <g
           id="SvgjsG2339"
           transform="matrix(0.69710032,0,0,0.69710032,43.575127,-202.83806)" />
        <g
           id="SvgjsG2353"
           transform="matrix(0.69710032,0,0,0.69710032,43.575127,-202.83806)" />
        <g
           id="SvgjsG2367"
           transform="matrix(0.69710032,0,0,0.69710032,43.575127,-202.83806)" />
        <g
           id="SvgjsG2381"
           transform="matrix(0.69710032,0,0,0.69710032,43.575127,-202.83806)" />
        <g
           id="SvgjsG2395"
           transform="matrix(0.69710032,0,0,0.69710032,43.575127,-202.83806)" />
        <g
           id="SvgjsG2409"
           transform="matrix(0.69710032,0,0,0.69710032,43.575127,-202.83806)" />
        <g
           id="SvgjsG2423"
           transform="matrix(0.69710032,0,0,0.69710032,43.575127,-202.83806)" />
        <g
           id="SvgjsG2437"
           transform="matrix(0.69710032,0,0,0.69710032,43.575127,-202.83806)" />
        <g
           id="SvgjsG2451"
           transform="matrix(0.69710032,0,0,0.69710032,43.575127,-202.83806)" />
        <g
           id="SvgjsG2465"
           transform="matrix(0.69710032,0,0,0.69710032,43.575127,-202.83806)" />
        <g
           id="SvgjsG2479"
           transform="matrix(0.69710032,0,0,0.69710032,43.575127,-202.83806)" />
        <g
           id="SvgjsG2493"
           transform="matrix(0.69710032,0,0,0.69710032,43.575127,-202.83806)" />
        <g
           id="SvgjsG2507"
           transform="matrix(0.69710032,0,0,0.69710032,43.575127,-202.83806)" />
        <g
           id="SvgjsG2521"
           transform="matrix(0.69710032,0,0,0.69710032,43.575127,-202.83806)" />
        <g
           id="SvgjsG2535"
           transform="matrix(0.69710032,0,0,0.69710032,43.575127,-202.83806)" />
        <g
           id="SvgjsG2549"
           transform="matrix(0.69710032,0,0,0.69710032,43.575127,-202.83806)" />
        <g
           id="SvgjsG2563"
           transform="matrix(0.69710032,0,0,0.69710032,43.575127,-202.83806)" />
        <g
           id="SvgjsG2577"
           transform="matrix(0.69710032,0,0,0.69710032,43.575127,-202.83806)" />
        <g
           id="SvgjsG2591"
           transform="matrix(0.69710032,0,0,0.69710032,43.575127,-202.83806)" />
        <g
           id="SvgjsG2605"
           transform="matrix(0.69710032,0,0,0.69710032,43.575127,-202.83806)" />
        <g
           id="SvgjsG2619"
           transform="matrix(0.69710032,0,0,0.69710032,43.575127,-202.83806)" />
        <g
           id="SvgjsG2633"
           transform="matrix(0.69710032,0,0,0.69710032,43.575127,-202.83806)" />
        <g
           id="SvgjsG2647"
           transform="matrix(0.69710032,0,0,0.69710032,43.575127,-202.83806)" />
        <g
           id="SvgjsG2671"
           transform="matrix(0.69710032,0,0,0.69710032,43.575127,-192.94564)" />
        <g
           id="SvgjsG2685"
           transform="matrix(0.69710032,0,0,0.69710032,43.575127,-202.83806)" />
        <g
           id="SvgjsG2699"
           transform="matrix(0.69710032,0,0,0.69710032,43.575127,-202.83806)" />
        <g
           id="SvgjsG2713"
           transform="matrix(0.69710032,0,0,0.69710032,43.575127,-202.83806)" />
        <g
           id="SvgjsG2727"
           transform="matrix(0.69710032,0,0,0.69710032,43.575127,-202.83806)" />
        <g
           id="SvgjsG2741"
           transform="matrix(0.69710032,0,0,0.69710032,43.575127,-202.83806)" />
        <g
           id="SvgjsG2755"
           transform="matrix(0.69710032,0,0,0.69710032,43.575127,-194.0669)" />
        <g
           id="SvgjsG2797"
           transform="matrix(0.69710032,0,0,0.69710032,79.824344,-128.43785)" />
        <path
           style="fill:none;stroke:#000000;stroke-width:1.66639;stroke-linecap:round;stroke-miterlimit:10"
           inkscape:connector-curvature="0"
           stroke-miterlimit="10"
           d="m -1.9362596,19.370357 c 5.6582439,1.950843 7.1098348,12.983646 13.8575946,10.614295 5.325793,-1.871754 6.35277,-8.992987 11.73452,-10.805424"
           id="SvgjsPath2807" />
        <path
           style="fill:none;stroke:#000000;stroke-width:1.66639;stroke-linecap:round;stroke-miterlimit:10"
           inkscape:connector-curvature="0"
           stroke-miterlimit="10"
           d="M 22.895497,30.142828 C 17.28992,28.554474 16.967343,20.675312 11.944377,19.086958 5.3710712,17.007597 3.1459557,29.460693 -2.7295328,30.29771"
           id="SvgjsPath2808" />
        <text
           id="SvgjsText2810"
           transform="scale(1.0402301,0.96132576)"
           style="font-size:6.66558px;line-height:0%;font-family:Helvetica, Arial, sans-serif;text-anchor:middle;stroke:#000000;stroke-width:0.555465"
           x="10.058507"
           y="-3.3098681"><tspan
             style="stroke:#000000;stroke-width:0.555465"
             id="SvgjsTspan2811"
             dy="11.553667"
             x="10.058507" /><tspan
             style="stroke:#000000;stroke-width:0.555465"
             id="SvgjsTspan2812"
             alignment-baseline="middle" /></text>
        <text
           style="font-size:8.3652px;line-height:0%;font-family:Helvetica, Arial, sans-serif"
           text-anchor="left"
           id="SvgjsText2816"
           x="-19.1639"
           y="-53.525581"><tspan
             x="-19.1639"
             dy="14.499686"
             id="SvgjsTspan2817" /><tspan
             alignment-baseline="middle"
             id="SvgjsTspan2818" /></text>
        <path
           id="path5154"
           d="m 11.816855,19.118502 c 5.658244,1.950842 7.109835,12.983645 13.857595,10.614295 5.325793,-1.871754 6.352769,-8.992987 11.73452,-10.805425"
           stroke-miterlimit="10"
           inkscape:connector-curvature="0"
           style="fill:none;stroke:#000000;stroke-width:1.66639;stroke-linecap:round;stroke-miterlimit:10" />
        <path
           id="path5156"
           d="M 37.215287,30.205793 C 31.60971,28.617438 31.287134,20.738277 26.264167,19.149922 19.690861,17.070561 17.465746,29.523657 11.590257,30.360674"
           stroke-miterlimit="10"
           inkscape:connector-curvature="0"
           style="fill:none;stroke:#000000;stroke-width:1.66639;stroke-linecap:round;stroke-miterlimit:10" />
      </g>
    </g>
  </g>
</svg>
