<?xml version="1.0" encoding="UTF-8" standalone="no"?>
<!-- Generator: Adobe Illustrator 14.0.0, SVG Export Plug-In . SVG Version: 6.00 Build 43363)  -->

<svg
   version="1.1"
   id="Layer_1"
   x="0px"
   y="0px"
   width="0.5in"
   height="1.5in"
   viewBox="0 0 45 135"
   enable-background="new 221.5 222.5 55 55"
   xml:space="preserve"
   inkscape:version="1.1.2 (0a00cf5339, 2022-02-04)"
   sodipodi:docname="aptamer.svg"
   inkscape:export-filename="/Users/jakebeal/projects/SBOL/SBOLv-realizations/Glyphs/aptamer/aptamer-A-specification.png"
   inkscape:export-xdpi="300"
   inkscape:export-ydpi="300"
   xmlns:inkscape="http://www.inkscape.org/namespaces/inkscape"
   xmlns:sodipodi="http://sodipodi.sourceforge.net/DTD/sodipodi-0.dtd"
   xmlns="http://www.w3.org/2000/svg"
   xmlns:svg="http://www.w3.org/2000/svg"
   xmlns:rdf="http://www.w3.org/1999/02/22-rdf-syntax-ns#"
   xmlns:cc="http://creativecommons.org/ns#"
   xmlns:dc="http://purl.org/dc/elements/1.1/"><metadata
     id="metadata8"><rdf:RDF><cc:Work
         rdf:about=""><dc:format>image/svg+xml</dc:format><dc:type
           rdf:resource="http://purl.org/dc/dcmitype/StillImage" /></cc:Work></rdf:RDF></metadata><defs
     id="defs6" /><sodipodi:namedview
     pagecolor="#ffffff"
     bordercolor="#666666"
     borderopacity="1"
     objecttolerance="10"
     gridtolerance="10"
     guidetolerance="10"
     inkscape:pageopacity="0"
     inkscape:pageshadow="2"
     inkscape:window-width="2560"
     inkscape:window-height="1408"
     id="namedview4"
     showgrid="false"
     units="in"
     inkscape:zoom="32"
     inkscape:cx="15"
     inkscape:cy="70.59375"
     inkscape:window-x="0"
     inkscape:window-y="0"
     inkscape:window-maximized="1"
     inkscape:current-layer="Layer_1"
     inkscape:pagecheckerboard="0"
     inkscape:document-units="in"
     height="1.5in" /><path
     id="MGA_2_"
     d="m 18,67.48864 v -11.5668 c 3.25316,-0.83762 5.65964,-3.78365 5.65964,-7.29791 0,-0.76821 -0.11621,-1.50849 -0.32901,-2.20651 l 6.84439,-3.95194 c 0.53125,0.28676 1.12967,0.46334 1.77637,0.46334 2.08426,0 3.7731,-1.68884 3.7731,-3.7731 0,-2.0835 -1.68884,-3.77309 -3.7731,-3.77309 -2.08501,0 -3.77309,1.68959 -3.77309,3.77309 0,0.034 0.009,0.0664 0.0106,0.0996 l -6.83609,3.94591 c -1.35756,-1.31304 -3.2026,-2.1235 -5.24082,-2.1235 -4.16625,0 -7.54619,3.37843 -7.54619,7.54619 0,3.51501 2.40648,6.46029 5.65964,7.29791 v 11.5668"
     inkscape:connector-curvature="0"
     style="fill:none;stroke:#000000;stroke-width:2.97;stroke-miterlimit:4;stroke-dasharray:none" /><path
     style="fill:none;stroke:#000000;stroke-width:2.97;stroke-linecap:round;stroke-linejoin:miter;stroke-miterlimit:4;stroke-dasharray:none;stroke-opacity:1"
     d="M -8.5938867,67.5 H 14.226903"
     id="path1361" /><path
     style="fill:none;stroke:#000000;stroke-width:2.97;stroke-linecap:round;stroke-linejoin:miter;stroke-miterlimit:4;stroke-dasharray:none;stroke-opacity:1"
     d="M 18.00731,67.5 H 46.751036"
     id="path1361-3" /></svg>
