<?xml version="1.0" encoding="UTF-8" standalone="no"?>
<svg
   viewBox="0 0 44.999995 134.99999"
   version="1.1"
   xml:space="preserve"
   x="0px"
   y="0px"
   width="0.49999997in"
   height="1.5in"
   id="svg2"
   xmlns="http://www.w3.org/2000/svg"
   xmlns:svg="http://www.w3.org/2000/svg"
   xmlns:rdf="http://www.w3.org/1999/02/22-rdf-syntax-ns#"
   xmlns:cc="http://creativecommons.org/ns#"
   xmlns:dc="http://purl.org/dc/elements/1.1/"><metadata
     id="metadata12"><rdf:RDF><cc:Work
         rdf:about=""><dc:format>image/svg+xml</dc:format><dc:type
           rdf:resource="http://purl.org/dc/dcmitype/StillImage" /></cc:Work></rdf:RDF></metadata><defs
     id="defs4"><style
       type="text/css"
       id="style6"><![CDATA[
      path,circle {
        stroke:#000000;
        stroke-width: 3;
        stroke-linecap: round;
        stroke-linejoin: round;
        fill: none
      }]]></style></defs><path
     d="M 5.2562231,78.90058 H 28.867396 L 39.743829,67.499996 28.867396,56.099411 H 5.2562231 Z"
     id="path8"
     style="fill:none;stroke:#000000;stroke-width:2.99409;stroke-linecap:round;stroke-linejoin:round;stroke-dasharray:none" /><path
     style="fill:#000000;stroke-width:2.99409;stroke-dasharray:none"
     d="M -0.10707015,67.499996 H 4.4942304"
     id="path1" /><path
     style="fill:#000000;stroke-width:2.99409;stroke-dasharray:none"
     d="m 40.35109,67.499996 h 5.147126"
     id="path2" /><path
     style="fill:#ff5599;stroke-width:0.317171;stroke-dasharray:none"
     d="m 6.8080307,74.681151 c -0.030452,-5.082566 -0.00266,-16.952294 0.039779,-16.99274 0.023321,-0.02222 4.3332343,-0.03611 9.5775863,-0.03088 5.244351,0.0052 10.037244,0.0015 10.650876,-0.0083 l 1.115694,-0.0179 4.69881,4.941258 4.698811,4.941258 -0.404499,0.409639 c -0.222476,0.225301 -2.285396,2.38817 -4.58427,4.806375 -2.298875,2.418206 -4.229643,4.448362 -4.290596,4.511458 -0.08125,0.0841 -2.589158,0.112742 -9.397728,0.107305 -5.107797,-0.0041 -9.9172155,0.0015 -10.6875961,0.01251 l -1.4006921,0.01992 z"
     id="path3" /><path
     style="fill:#ff2a2a;stroke-width:0.317171;stroke-dasharray:none"
     d="m 7.0144032,74.200667 c -0.023383,-5.437151 5.732e-4,-16.283858 0.036027,-16.312292 0.019099,-0.01532 4.5490378,-0.02332 10.0665318,-0.01777 5.517494,0.0055 10.235574,-0.0082 10.484622,-0.03052 l 0.452814,-0.04059 4.617935,4.855245 4.617934,4.855245 -0.404848,0.408916 c -0.354323,0.357884 -8.627479,9.058953 -8.68424,9.133419 -0.04291,0.0563 -6.472935,0.09936 -13.00978,0.08712 -3.660064,-0.0068 -6.9942747,0.0065 -7.4093563,0.02953 l -0.7546935,0.04199 z"
     id="path4" /></svg>
